<?xml version="1.0" encoding="iso-8859-1"?>
<!-- Generator: Adobe Illustrator 19.0.0, SVG Export Plug-In . SVG Version: 6.00 Build 0)  -->
<svg version="1.1" id="Layer_1" xmlns="http://www.w3.org/2000/svg" xmlns:xlink="http://www.w3.org/1999/xlink" x="0px" y="0px"
	 viewBox="0 0 512.001 512.001" style="enable-background:new 0 0 512.001 512.001;" xml:space="preserve">
<g>
	<g>
		<path d="M408.093,75.046l-22.755-63.715c-3.675-10.291-15.972-14.532-25.208-8.674C249.277,72.919,262.049,65.035,256,68.162
			c-6.056-3.131,6.723,4.757-104.129-65.505c-9.228-5.853-21.53-1.626-25.209,8.674l-22.755,63.715
			c-2.371,6.639-0.416,14.053,4.919,18.658l89.076,76.902c7.786,6.717,19.665,5.068,25.347-3.442l32.75-49.054l32.75,49.054
			c5.675,8.497,17.554,10.168,25.35,3.442l89.076-76.902C408.51,89.098,410.465,81.685,408.093,75.046z"/>
	</g>
</g>
<g>
	<g>
		<path d="M231.468,203.709c-18.549,9.052-40.509,5.987-55.864-7.261l-89.083-76.909c-14.143-12.211-20.392-31.376-16.614-49.383
			c0.686-3.271-1.711-6.44-5.054-6.44c-9.425,0.001-17.065,7.641-17.065,17.067v414.149c0,9.425,7.641,17.067,17.067,17.067h168.873
			c2.875,0,5.206-2.331,5.206-5.206v-298.4C238.934,204.553,234.916,202.025,231.468,203.709z M169.53,290.134h-51.889
			c-8.761,0-16.447-6.418-17.408-15.126c-1.135-10.295,6.894-19.008,16.96-19.008h51.889c8.761,0,16.446,6.418,17.408,15.126
			C187.625,281.421,179.594,290.134,169.53,290.134z"/>
	</g>
</g>
<g>
	<g>
		<path d="M447.146,63.717c-3.301,0-5.78,3.036-5.09,6.263c3.856,18.055-2.387,37.308-16.575,49.558l-89.077,76.903
			c-15.555,13.421-37.542,16.209-55.859,7.275c-3.454-1.685-7.477,0.834-7.477,4.677v298.4c0,2.875,2.331,5.206,5.206,5.206h168.873
			c9.425,0,17.067-7.641,17.067-17.067V80.785C464.213,71.359,456.572,63.717,447.146,63.717z M393.371,290.134h-51.889
			c-8.761,0-16.447-6.418-17.408-15.126c-1.135-10.295,6.894-19.008,16.96-19.008h51.889c8.761,0,16.446,6.418,17.408,15.126
			C411.466,281.421,403.435,290.134,393.371,290.134z"/>
	</g>
</g>
<g>
</g>
<g>
</g>
<g>
</g>
<g>
</g>
<g>
</g>
<g>
</g>
<g>
</g>
<g>
</g>
<g>
</g>
<g>
</g>
<g>
</g>
<g>
</g>
<g>
</g>
<g>
</g>
<g>
</g>
</svg>
