<?xml version="1.0" standalone="no"?>
<!DOCTYPE svg PUBLIC "-//W3C//DTD SVG 20010904//EN"
 "http://www.w3.org/TR/2001/REC-SVG-20010904/DTD/svg10.dtd">
<svg version="1.0" xmlns="http://www.w3.org/2000/svg"
 width="282.000000pt" height="302.000000pt" viewBox="0 0 282.000000 302.000000"
 preserveAspectRatio="xMidYMid meet">

<g transform="translate(0.000000,302.000000) scale(0.100000,-0.100000)"
fill="#000000" stroke="none">
<path d="M1335 2973 c-3 -10 -47 -125 -97 -256 l-90 -238 176 -452 c97 -249
176 -455 176 -459 0 -12 -360 172 -449 230 -116 74 -203 164 -243 248 -26 56
-32 82 -36 163 -5 111 6 178 45 259 34 74 140 180 214 216 52 25 58 32 77 83
l20 55 -46 -7 c-148 -22 -312 -132 -429 -286 -91 -121 -136 -255 -136 -409 0
-216 74 -391 230 -541 86 -83 150 -126 364 -245 335 -186 472 -277 580 -384
104 -103 141 -180 147 -299 9 -202 -94 -386 -263 -465 -51 -25 -55 -29 -55
-61 l0 -35 611 0 610 0 -3 33 c-3 30 -5 32 -53 38 -68 8 -105 29 -153 85 -60
70 -93 144 -300 664 -190 476 -542 1344 -667 1645 -63 150 -154 378 -168 418
-4 10 -17 17 -31 17 -13 0 -27 -8 -31 -17z"/>
<path d="M1610 2794 c0 -4 5 -24 12 -46 10 -33 20 -43 72 -71 81 -43 182 -146
228 -233 32 -61 75 -185 93 -266 4 -23 11 -28 35 -28 l30 0 0 253 0 254 -62
26 c-97 41 -174 66 -285 93 -110 26 -123 28 -123 18z"/>
<path d="M511 772 c-161 -383 -213 -479 -303 -557 -27 -22 -65 -42 -100 -52
-53 -15 -58 -19 -58 -45 l0 -28 440 0 440 0 0 49 c0 45 -2 50 -32 62 -56 23
-172 105 -212 149 -56 63 -98 158 -104 239 -4 57 2 89 32 200 21 73 40 139 43
147 4 11 -4 14 -33 14 l-39 0 -74 -178z"/>
</g>
</svg>
